<?xml version="1.0" encoding="UTF-8"?>
<svg width="170px" height="154px" viewBox="0 0 170 154" version="1.1" xmlns="http://www.w3.org/2000/svg" xmlns:xlink="http://www.w3.org/1999/xlink">
    <title>Option 4</title>
    <g id="Landing" stroke="none" stroke-width="1" fill="none" fill-rule="evenodd">
        <g id="Desktop-HD" transform="translate(-67.000000, -57.000000)" fill="#FFFFFF">
            <path d="M79.2333596,132.774149 C79.3664644,145.671849 82.8239061,158.322117 89.2774599,169.5 C95.8600848,180.901441 105.327924,190.36928 116.729365,196.951905 C128.130806,203.53453 141.064115,207 154.229365,207 C167.394615,207 180.327924,203.53453 191.729365,196.951905 C196.95697,193.933746 201.778082,190.309041 206.100976,186.169514 C206.188591,185.327335 206.272699,184.481954 206.356465,183.636888 L206.458276,182.610788 C207.138923,175.774545 207.887966,169.060576 210.521016,164.5 C212.667525,160.782139 216.147774,157.433054 219.86369,154.15108 L220.60969,153.495491 C220.734439,153.386346 220.859368,153.277252 220.984437,153.1682 L222.112735,152.187536 C222.363819,151.969723 222.614974,151.751941 222.865875,151.534098 L223.617492,150.880305 C225.003971,149.671346 226.372641,148.457817 227.668047,147.224486 C228.701998,142.236225 229.229365,137.13576 229.229365,132 C229.229365,118.83475 225.763895,105.901441 219.18127,94.5 L219.18127,94.5 C225.763895,105.901441 236.229365,118.83475 236.229365,132 C236.229365,137.854411 232.447325,142.674226 227.668047,147.224486 C226.051246,155.022694 223.196015,162.546258 219.18127,169.5 C215.616805,175.673836 211.206342,181.280705 206.100976,186.169514 C205.156829,195.212764 203.779032,203.851433 197.729365,207.34421 C190.777267,211.358006 181.024802,210.348951 171.48718,208.950133 L170.343889,208.780701 C164.634523,207.927149 159.04592,207 154.229365,207 C141.064115,207 126.630806,206.132606 115.229365,199.549981 C110.554774,196.851105 102.963479,195.247688 95.1792947,193.509335 L94.039085,193.253836 C83.2000185,190.81473 72.2449464,187.998821 68.4928502,181.5 C64.9382327,175.343222 68.3533699,165.240551 72.2474531,155.175815 L72.6817703,154.05787 C72.8269798,153.685408 72.9725165,153.313201 73.1180507,152.941451 L73.5543159,151.827773 C76.4583028,144.415089 79.2293652,137.2661 79.2293652,132 Z M112.729365,60.1198915 C119.673884,56.1104718 128.670683,57.311771 137.618274,58.8636454 C130.314907,60.5214024 123.270066,63.2718192 116.729365,67.0480947 C105.327924,73.6307196 95.8600848,83.0985593 89.2774599,94.5 L89.2774599,94.5 C95.8600848,83.0985593 101.327924,66.7025164 112.729365,60.1198915 Z M191.729365,67.0480947 C182.840106,61.9158787 173.019668,61.109977 162.884131,61.0039992 L161.560368,60.9938473 C160.455828,60.9881984 159.347881,60.988956 158.237319,60.9914633 L156.90344,60.9950137 C156.458429,60.9962784 156.01305,60.997525 155.567354,60.9984554 L154.229365,61 C149.840949,61 145.033859,60.1708074 140.152537,59.3090182 L138.523153,59.0216406 L138.523153,59.0216406 L137.618274,58.8636454 L137.618274,58.8636454 C143.046124,57.6298649 148.616666,57 154.229365,57 C167.136473,57 179.820647,60.3309014 191.056935,66.6644794 Z" id="Option-4"></path>
        </g>
    </g>
</svg>